<?xml version="1.0" encoding="utf-8" standalone="no"?>
<!DOCTYPE svg PUBLIC "-//W3C//DTD SVG 1.1//EN"
  "http://www.w3.org/Graphics/SVG/1.1/DTD/svg11.dtd">
<svg xmlns:xlink="http://www.w3.org/1999/xlink" width="1065.29375pt" height="585.87pt" viewBox="0 0 1065.29375 585.87" xmlns="http://www.w3.org/2000/svg" version="1.1">
 <metadata>
  <rdf:RDF xmlns:dc="http://purl.org/dc/elements/1.1/" xmlns:cc="http://creativecommons.org/ns#" xmlns:rdf="http://www.w3.org/1999/02/22-rdf-syntax-ns#">
   <cc:Work>
    <dc:type rdf:resource="http://purl.org/dc/dcmitype/StillImage"/>
    <dc:date>2026-06-09T22:59:13.807864</dc:date>
    <dc:format>image/svg+xml</dc:format>
    <dc:creator>
     <cc:Agent>
      <dc:title>Matplotlib v3.10.6, https://matplotlib.org/</dc:title>
     </cc:Agent>
    </dc:creator>
   </cc:Work>
  </rdf:RDF>
 </metadata>
 <defs>
  <style type="text/css">*{stroke-linejoin: round; stroke-linecap: butt}</style>
 </defs>
 <g id="figure_1">
  <g id="patch_1">
   <path d="M 0 585.87 
L 1065.29375 585.87 
L 1065.29375 0 
L 0 0 
z
" style="fill: #ffffff"/>
  </g>
  <g id="axes_1">
   <g id="patch_2">
    <path d="M 32.81375 477 
L 308.426653 477 
L 308.426653 75.24 
L 32.81375 75.24 
z
" style="fill: #fafcff"/>
   </g>
   <g id="matplotlib.axis_1">
    <g id="xtick_1">
     <g id="line2d_1">
      <path d="M 32.81375 477 
L 32.81375 75.24 
" clip-path="url(#p4163df0e39)" style="fill: none; stroke: #d9e1ef; stroke-opacity: 0.55; stroke-width: 0.7; stroke-linecap: square"/>
     </g>
     <g id="line2d_2"/>
    </g>
    <g id="xtick_2">
     <g id="line2d_3">
      <path d="M 170.620202 477 
L 170.620202 75.24 
" clip-path="url(#p4163df0e39)" style="fill: none; stroke: #d9e1ef; stroke-opacity: 0.55; stroke-width: 0.7; stroke-linecap: square"/>
     </g>
     <g id="line2d_4"/>
    </g>
    <g id="xtick_3">
     <g id="line2d_5">
      <path d="M 308.426653 477 
L 308.426653 75.24 
" clip-path="url(#p4163df0e39)" style="fill: none; stroke: #d9e1ef; stroke-opacity: 0.55; stroke-width: 0.7; stroke-linecap: square"/>
     </g>
     <g id="line2d_6"/>
    </g>
    <g id="text_1">
     <!-- Feature x -->
     <g style="fill: #253047" transform="translate(138.516452 496.118125) scale(0.12 -0.12)">
      <defs>
       <path id="DejaVuSans-Bold-46" d="M 588 4666 
L 3834 4666 
L 3834 3756 
L 1791 3756 
L 1791 2888 
L 3713 2888 
L 3713 1978 
L 1791 1978 
L 1791 0 
L 588 0 
L 588 4666 
z
" transform="scale(0.015625)"/>
       <path id="DejaVuSans-Bold-65" d="M 4031 1759 
L 4031 1441 
L 1416 1441 
Q 1456 1047 1700 850 
Q 1944 653 2381 653 
Q 2734 653 3104 758 
Q 3475 863 3866 1075 
L 3866 213 
Q 3469 63 3072 -14 
Q 2675 -91 2278 -91 
Q 1328 -91 801 392 
Q 275 875 275 1747 
Q 275 2603 792 3093 
Q 1309 3584 2216 3584 
Q 3041 3584 3536 3087 
Q 4031 2591 4031 1759 
z
M 2881 2131 
Q 2881 2450 2695 2645 
Q 2509 2841 2209 2841 
Q 1884 2841 1681 2658 
Q 1478 2475 1428 2131 
L 2881 2131 
z
" transform="scale(0.015625)"/>
       <path id="DejaVuSans-Bold-61" d="M 2106 1575 
Q 1756 1575 1579 1456 
Q 1403 1338 1403 1106 
Q 1403 894 1545 773 
Q 1688 653 1941 653 
Q 2256 653 2472 879 
Q 2688 1106 2688 1447 
L 2688 1575 
L 2106 1575 
z
M 3816 1997 
L 3816 0 
L 2688 0 
L 2688 519 
Q 2463 200 2181 54 
Q 1900 -91 1497 -91 
Q 953 -91 614 226 
Q 275 544 275 1050 
Q 275 1666 698 1953 
Q 1122 2241 2028 2241 
L 2688 2241 
L 2688 2328 
Q 2688 2594 2478 2717 
Q 2269 2841 1825 2841 
Q 1466 2841 1156 2769 
Q 847 2697 581 2553 
L 581 3406 
Q 941 3494 1303 3539 
Q 1666 3584 2028 3584 
Q 2975 3584 3395 3211 
Q 3816 2838 3816 1997 
z
" transform="scale(0.015625)"/>
       <path id="DejaVuSans-Bold-74" d="M 1759 4494 
L 1759 3500 
L 2913 3500 
L 2913 2700 
L 1759 2700 
L 1759 1216 
Q 1759 972 1856 886 
Q 1953 800 2241 800 
L 2816 800 
L 2816 0 
L 1856 0 
Q 1194 0 917 276 
Q 641 553 641 1216 
L 641 2700 
L 84 2700 
L 84 3500 
L 641 3500 
L 641 4494 
L 1759 4494 
z
" transform="scale(0.015625)"/>
       <path id="DejaVuSans-Bold-75" d="M 500 1363 
L 500 3500 
L 1625 3500 
L 1625 3150 
Q 1625 2866 1622 2436 
Q 1619 2006 1619 1863 
Q 1619 1441 1641 1255 
Q 1663 1069 1716 984 
Q 1784 875 1895 815 
Q 2006 756 2150 756 
Q 2500 756 2700 1025 
Q 2900 1294 2900 1772 
L 2900 3500 
L 4019 3500 
L 4019 0 
L 2900 0 
L 2900 506 
Q 2647 200 2364 54 
Q 2081 -91 1741 -91 
Q 1134 -91 817 281 
Q 500 653 500 1363 
z
" transform="scale(0.015625)"/>
       <path id="DejaVuSans-Bold-72" d="M 3138 2547 
Q 2991 2616 2845 2648 
Q 2700 2681 2553 2681 
Q 2122 2681 1889 2404 
Q 1656 2128 1656 1613 
L 1656 0 
L 538 0 
L 538 3500 
L 1656 3500 
L 1656 2925 
Q 1872 3269 2151 3426 
Q 2431 3584 2822 3584 
Q 2878 3584 2943 3579 
Q 3009 3575 3134 3559 
L 3138 2547 
z
" transform="scale(0.015625)"/>
       <path id="DejaVuSans-Bold-20" transform="scale(0.015625)"/>
       <path id="DejaVuSans-Bold-78" d="M 1422 1791 
L 159 3500 
L 1344 3500 
L 2059 2463 
L 2784 3500 
L 3969 3500 
L 2706 1797 
L 4031 0 
L 2847 0 
L 2059 1106 
L 1281 0 
L 97 0 
L 1422 1791 
z
" transform="scale(0.015625)"/>
      </defs>
      <use xlink:href="#DejaVuSans-Bold-46"/>
      <use xlink:href="#DejaVuSans-Bold-65" transform="translate(64.310547 0)"/>
      <use xlink:href="#DejaVuSans-Bold-61" transform="translate(132.132812 0)"/>
      <use xlink:href="#DejaVuSans-Bold-74" transform="translate(199.613281 0)"/>
      <use xlink:href="#DejaVuSans-Bold-75" transform="translate(247.416016 0)"/>
      <use xlink:href="#DejaVuSans-Bold-72" transform="translate(318.607422 0)"/>
      <use xlink:href="#DejaVuSans-Bold-65" transform="translate(367.923828 0)"/>
      <use xlink:href="#DejaVuSans-Bold-20" transform="translate(435.746094 0)"/>
      <use xlink:href="#DejaVuSans-Bold-78" transform="translate(470.560547 0)"/>
     </g>
    </g>
   </g>
   <g id="matplotlib.axis_2">
    <g id="ytick_1">
     <g id="line2d_7">
      <path d="M 32.81375 477 
L 308.426653 477 
" clip-path="url(#p4163df0e39)" style="fill: none; stroke: #d9e1ef; stroke-opacity: 0.55; stroke-width: 0.7; stroke-linecap: square"/>
     </g>
     <g id="line2d_8"/>
    </g>
    <g id="ytick_2">
     <g id="line2d_9">
      <path d="M 32.81375 276.12 
L 308.426653 276.12 
" clip-path="url(#p4163df0e39)" style="fill: none; stroke: #d9e1ef; stroke-opacity: 0.55; stroke-width: 0.7; stroke-linecap: square"/>
     </g>
     <g id="line2d_10"/>
    </g>
    <g id="ytick_3">
     <g id="line2d_11">
      <path d="M 32.81375 75.24 
L 308.426653 75.24 
" clip-path="url(#p4163df0e39)" style="fill: none; stroke: #d9e1ef; stroke-opacity: 0.55; stroke-width: 0.7; stroke-linecap: square"/>
     </g>
     <g id="line2d_12"/>
    </g>
    <g id="text_2">
     <!-- Feature y -->
     <g style="fill: #253047" transform="translate(16.224375 308.265) rotate(-90) scale(0.12 -0.12)">
      <defs>
       <path id="DejaVuSans-Bold-79" d="M 78 3500 
L 1197 3500 
L 2138 1125 
L 2938 3500 
L 4056 3500 
L 2584 -331 
Q 2363 -916 2067 -1148 
Q 1772 -1381 1288 -1381 
L 641 -1381 
L 641 -647 
L 991 -647 
Q 1275 -647 1404 -556 
Q 1534 -466 1606 -231 
L 1638 -134 
L 78 3500 
z
" transform="scale(0.015625)"/>
      </defs>
      <use xlink:href="#DejaVuSans-Bold-46"/>
      <use xlink:href="#DejaVuSans-Bold-65" transform="translate(64.310547 0)"/>
      <use xlink:href="#DejaVuSans-Bold-61" transform="translate(132.132812 0)"/>
      <use xlink:href="#DejaVuSans-Bold-74" transform="translate(199.613281 0)"/>
      <use xlink:href="#DejaVuSans-Bold-75" transform="translate(247.416016 0)"/>
      <use xlink:href="#DejaVuSans-Bold-72" transform="translate(318.607422 0)"/>
      <use xlink:href="#DejaVuSans-Bold-65" transform="translate(367.923828 0)"/>
      <use xlink:href="#DejaVuSans-Bold-20" transform="translate(435.746094 0)"/>
      <use xlink:href="#DejaVuSans-Bold-79" transform="translate(470.560547 0)"/>
     </g>
    </g>
   </g>
   <g id="patch_3">
    <path d="M 159.595685 336.384 
L 225.742782 336.384 
L 225.742782 247.9968 
L 159.595685 247.9968 
L 159.595685 336.384 
z
" clip-path="url(#p4163df0e39)" style="fill: none; opacity: 0.75; stroke-dasharray: 5.6,4.2; stroke-dashoffset: 0; stroke: #ff4b4b; stroke-width: 1.4; stroke-linejoin: miter"/>
   </g>
   <g id="patch_4">
    <path d="M 32.81375 477 
L 32.81375 75.24 
" style="fill: none; stroke: #253047; stroke-width: 1.8; stroke-linejoin: miter; stroke-linecap: square"/>
   </g>
   <g id="patch_5">
    <path d="M 308.426653 477 
L 308.426653 75.24 
" style="fill: none; stroke: #253047; stroke-width: 1.8; stroke-linejoin: miter; stroke-linecap: square"/>
   </g>
   <g id="patch_6">
    <path d="M 32.81375 477 
L 308.426653 477 
" style="fill: none; stroke: #253047; stroke-width: 1.8; stroke-linejoin: miter; stroke-linecap: square"/>
   </g>
   <g id="patch_7">
    <path d="M 32.81375 75.24 
L 308.426653 75.24 
" style="fill: none; stroke: #253047; stroke-width: 1.8; stroke-linejoin: miter; stroke-linecap: square"/>
   </g>
   <g id="PathCollection_1">
    <defs>
     <path id="m098430078d" d="M 0 2.598076 
C 0.689018 2.598076 1.349908 2.324327 1.837117 1.837117 
C 2.324327 1.349908 2.598076 0.689018 2.598076 0 
C 2.598076 -0.689018 2.324327 -1.349908 1.837117 -1.837117 
C 1.349908 -2.324327 0.689018 -2.598076 0 -2.598076 
C -0.689018 -2.598076 -1.349908 -2.324327 -1.837117 -1.837117 
C -2.324327 -1.349908 -2.598076 -0.689018 -2.598076 0 
C -2.598076 0.689018 -2.324327 1.349908 -1.837117 1.837117 
C -1.349908 2.324327 -0.689018 2.598076 0 2.598076 
z
" style="stroke: #ffffff; stroke-width: 0.8"/>
    </defs>
    <g clip-path="url(#p4163df0e39)">
     <use xlink:href="#m098430078d" x="74.155685" y="115.416" style="fill: #2463eb; stroke: #ffffff; stroke-width: 0.8"/>
     <use xlink:href="#m098430078d" x="151.327298" y="115.416" style="fill: #2463eb; stroke: #ffffff; stroke-width: 0.8"/>
     <use xlink:href="#m098430078d" x="192.669234" y="115.416" style="fill: #2463eb; stroke: #ffffff; stroke-width: 0.8"/>
     <use xlink:href="#m098430078d" x="267.084718" y="115.416" style="fill: #2463eb; stroke: #ffffff; stroke-width: 0.8"/>
     <use xlink:href="#m098430078d" x="74.155685" y="223.8912" style="fill: #2463eb; stroke: #ffffff; stroke-width: 0.8"/>
     <use xlink:href="#m098430078d" x="151.327298" y="223.8912" style="fill: #2463eb; stroke: #ffffff; stroke-width: 0.8"/>
     <use xlink:href="#m098430078d" x="192.669234" y="223.8912" style="fill: #2463eb; stroke: #ffffff; stroke-width: 0.8"/>
     <use xlink:href="#m098430078d" x="267.084718" y="223.8912" style="fill: #2463eb; stroke: #ffffff; stroke-width: 0.8"/>
     <use xlink:href="#m098430078d" x="74.155685" y="288.1728" style="fill: #2463eb; stroke: #ffffff; stroke-width: 0.8"/>
     <use xlink:href="#m098430078d" x="151.327298" y="288.1728" style="fill: #2463eb; stroke: #ffffff; stroke-width: 0.8"/>
     <use xlink:href="#m098430078d" x="267.084718" y="288.1728" style="fill: #2463eb; stroke: #ffffff; stroke-width: 0.8"/>
     <use xlink:href="#m098430078d" x="74.155685" y="404.6832" style="fill: #2463eb; stroke: #ffffff; stroke-width: 0.8"/>
     <use xlink:href="#m098430078d" x="151.327298" y="404.6832" style="fill: #2463eb; stroke: #ffffff; stroke-width: 0.8"/>
     <use xlink:href="#m098430078d" x="192.669234" y="404.6832" style="fill: #2463eb; stroke: #ffffff; stroke-width: 0.8"/>
     <use xlink:href="#m098430078d" x="267.084718" y="404.6832" style="fill: #2463eb; stroke: #ffffff; stroke-width: 0.8"/>
    </g>
   </g>
   <g id="text_3">
    <!-- Broad search -->
    <g style="fill: #657087" transform="translate(136.110475 531.180759) scale(0.105 -0.105)">
     <defs>
      <path id="DejaVuSans-42" d="M 1259 2228 
L 1259 519 
L 2272 519 
Q 2781 519 3026 730 
Q 3272 941 3272 1375 
Q 3272 1813 3026 2020 
Q 2781 2228 2272 2228 
L 1259 2228 
z
M 1259 4147 
L 1259 2741 
L 2194 2741 
Q 2656 2741 2882 2914 
Q 3109 3088 3109 3444 
Q 3109 3797 2882 3972 
Q 2656 4147 2194 4147 
L 1259 4147 
z
M 628 4666 
L 2241 4666 
Q 2963 4666 3353 4366 
Q 3744 4066 3744 3513 
Q 3744 3084 3544 2831 
Q 3344 2578 2956 2516 
Q 3422 2416 3680 2098 
Q 3938 1781 3938 1306 
Q 3938 681 3513 340 
Q 3088 0 2303 0 
L 628 0 
L 628 4666 
z
" transform="scale(0.015625)"/>
      <path id="DejaVuSans-72" d="M 2631 2963 
Q 2534 3019 2420 3045 
Q 2306 3072 2169 3072 
Q 1681 3072 1420 2755 
Q 1159 2438 1159 1844 
L 1159 0 
L 581 0 
L 581 3500 
L 1159 3500 
L 1159 2956 
Q 1341 3275 1631 3429 
Q 1922 3584 2338 3584 
Q 2397 3584 2469 3576 
Q 2541 3569 2628 3553 
L 2631 2963 
z
" transform="scale(0.015625)"/>
      <path id="DejaVuSans-6f" d="M 1959 3097 
Q 1497 3097 1228 2736 
Q 959 2375 959 1747 
Q 959 1119 1226 758 
Q 1494 397 1959 397 
Q 2419 397 2687 759 
Q 2956 1122 2956 1747 
Q 2956 2369 2687 2733 
Q 2419 3097 1959 3097 
z
M 1959 3584 
Q 2709 3584 3137 3096 
Q 3566 2609 3566 1747 
Q 3566 888 3137 398 
Q 2709 -91 1959 -91 
Q 1206 -91 779 398 
Q 353 888 353 1747 
Q 353 2609 779 3096 
Q 1206 3584 1959 3584 
z
" transform="scale(0.015625)"/>
      <path id="DejaVuSans-61" d="M 2194 1759 
Q 1497 1759 1228 1600 
Q 959 1441 959 1056 
Q 959 750 1161 570 
Q 1363 391 1709 391 
Q 2188 391 2477 730 
Q 2766 1069 2766 1631 
L 2766 1759 
L 2194 1759 
z
M 3341 1997 
L 3341 0 
L 2766 0 
L 2766 531 
Q 2569 213 2275 61 
Q 1981 -91 1556 -91 
Q 1019 -91 701 211 
Q 384 513 384 1019 
Q 384 1609 779 1909 
Q 1175 2209 1959 2209 
L 2766 2209 
L 2766 2266 
Q 2766 2663 2505 2880 
Q 2244 3097 1772 3097 
Q 1472 3097 1187 3025 
Q 903 2953 641 2809 
L 641 3341 
Q 956 3463 1253 3523 
Q 1550 3584 1831 3584 
Q 2591 3584 2966 3190 
Q 3341 2797 3341 1997 
z
" transform="scale(0.015625)"/>
      <path id="DejaVuSans-64" d="M 2906 2969 
L 2906 4863 
L 3481 4863 
L 3481 0 
L 2906 0 
L 2906 525 
Q 2725 213 2448 61 
Q 2172 -91 1784 -91 
Q 1150 -91 751 415 
Q 353 922 353 1747 
Q 353 2572 751 3078 
Q 1150 3584 1784 3584 
Q 2172 3584 2448 3432 
Q 2725 3281 2906 2969 
z
M 947 1747 
Q 947 1113 1208 752 
Q 1469 391 1925 391 
Q 2381 391 2643 752 
Q 2906 1113 2906 1747 
Q 2906 2381 2643 2742 
Q 2381 3103 1925 3103 
Q 1469 3103 1208 2742 
Q 947 2381 947 1747 
z
" transform="scale(0.015625)"/>
      <path id="DejaVuSans-20" transform="scale(0.015625)"/>
      <path id="DejaVuSans-73" d="M 2834 3397 
L 2834 2853 
Q 2591 2978 2328 3040 
Q 2066 3103 1784 3103 
Q 1356 3103 1142 2972 
Q 928 2841 928 2578 
Q 928 2378 1081 2264 
Q 1234 2150 1697 2047 
L 1894 2003 
Q 2506 1872 2764 1633 
Q 3022 1394 3022 966 
Q 3022 478 2636 193 
Q 2250 -91 1575 -91 
Q 1294 -91 989 -36 
Q 684 19 347 128 
L 347 722 
Q 666 556 975 473 
Q 1284 391 1588 391 
Q 1994 391 2212 530 
Q 2431 669 2431 922 
Q 2431 1156 2273 1281 
Q 2116 1406 1581 1522 
L 1381 1569 
Q 847 1681 609 1914 
Q 372 2147 372 2553 
Q 372 3047 722 3315 
Q 1072 3584 1716 3584 
Q 2034 3584 2315 3537 
Q 2597 3491 2834 3397 
z
" transform="scale(0.015625)"/>
      <path id="DejaVuSans-65" d="M 3597 1894 
L 3597 1613 
L 953 1613 
Q 991 1019 1311 708 
Q 1631 397 2203 397 
Q 2534 397 2845 478 
Q 3156 559 3463 722 
L 3463 178 
Q 3153 47 2828 -22 
Q 2503 -91 2169 -91 
Q 1331 -91 842 396 
Q 353 884 353 1716 
Q 353 2575 817 3079 
Q 1281 3584 2069 3584 
Q 2775 3584 3186 3129 
Q 3597 2675 3597 1894 
z
M 3022 2063 
Q 3016 2534 2758 2815 
Q 2500 3097 2075 3097 
Q 1594 3097 1305 2825 
Q 1016 2553 972 2059 
L 3022 2063 
z
" transform="scale(0.015625)"/>
      <path id="DejaVuSans-63" d="M 3122 3366 
L 3122 2828 
Q 2878 2963 2633 3030 
Q 2388 3097 2138 3097 
Q 1578 3097 1268 2742 
Q 959 2388 959 1747 
Q 959 1106 1268 751 
Q 1578 397 2138 397 
Q 2388 397 2633 464 
Q 2878 531 3122 666 
L 3122 134 
Q 2881 22 2623 -34 
Q 2366 -91 2075 -91 
Q 1284 -91 818 406 
Q 353 903 353 1747 
Q 353 2603 823 3093 
Q 1294 3584 2113 3584 
Q 2378 3584 2631 3529 
Q 2884 3475 3122 3366 
z
" transform="scale(0.015625)"/>
      <path id="DejaVuSans-68" d="M 3513 2113 
L 3513 0 
L 2938 0 
L 2938 2094 
Q 2938 2591 2744 2837 
Q 2550 3084 2163 3084 
Q 1697 3084 1428 2787 
Q 1159 2491 1159 1978 
L 1159 0 
L 581 0 
L 581 4863 
L 1159 4863 
L 1159 2956 
Q 1366 3272 1645 3428 
Q 1925 3584 2291 3584 
Q 2894 3584 3203 3211 
Q 3513 2838 3513 2113 
z
" transform="scale(0.015625)"/>
     </defs>
     <use xlink:href="#DejaVuSans-42"/>
     <use xlink:href="#DejaVuSans-72" transform="translate(68.603516 0)"/>
     <use xlink:href="#DejaVuSans-6f" transform="translate(107.466797 0)"/>
     <use xlink:href="#DejaVuSans-61" transform="translate(168.648438 0)"/>
     <use xlink:href="#DejaVuSans-64" transform="translate(229.927734 0)"/>
     <use xlink:href="#DejaVuSans-20" transform="translate(293.404297 0)"/>
     <use xlink:href="#DejaVuSans-73" transform="translate(325.191406 0)"/>
     <use xlink:href="#DejaVuSans-65" transform="translate(377.291016 0)"/>
     <use xlink:href="#DejaVuSans-61" transform="translate(438.814453 0)"/>
     <use xlink:href="#DejaVuSans-72" transform="translate(500.09375 0)"/>
     <use xlink:href="#DejaVuSans-63" transform="translate(538.957031 0)"/>
     <use xlink:href="#DejaVuSans-68" transform="translate(593.9375 0)"/>
    </g>
   </g>
   <g id="text_4">
    <!-- Iteration 1 -->
    <g style="fill: #253047" transform="translate(128.901295 62.24) scale(0.14 -0.14)">
     <defs>
      <path id="DejaVuSans-Bold-49" d="M 588 4666 
L 1791 4666 
L 1791 0 
L 588 0 
L 588 4666 
z
" transform="scale(0.015625)"/>
      <path id="DejaVuSans-Bold-69" d="M 538 3500 
L 1656 3500 
L 1656 0 
L 538 0 
L 538 3500 
z
M 538 4863 
L 1656 4863 
L 1656 3950 
L 538 3950 
L 538 4863 
z
" transform="scale(0.015625)"/>
      <path id="DejaVuSans-Bold-6f" d="M 2203 2784 
Q 1831 2784 1636 2517 
Q 1441 2250 1441 1747 
Q 1441 1244 1636 976 
Q 1831 709 2203 709 
Q 2569 709 2762 976 
Q 2956 1244 2956 1747 
Q 2956 2250 2762 2517 
Q 2569 2784 2203 2784 
z
M 2203 3584 
Q 3106 3584 3614 3096 
Q 4122 2609 4122 1747 
Q 4122 884 3614 396 
Q 3106 -91 2203 -91 
Q 1297 -91 786 396 
Q 275 884 275 1747 
Q 275 2609 786 3096 
Q 1297 3584 2203 3584 
z
" transform="scale(0.015625)"/>
      <path id="DejaVuSans-Bold-6e" d="M 4056 2131 
L 4056 0 
L 2931 0 
L 2931 347 
L 2931 1631 
Q 2931 2084 2911 2256 
Q 2891 2428 2841 2509 
Q 2775 2619 2662 2680 
Q 2550 2741 2406 2741 
Q 2056 2741 1856 2470 
Q 1656 2200 1656 1722 
L 1656 0 
L 538 0 
L 538 3500 
L 1656 3500 
L 1656 2988 
Q 1909 3294 2193 3439 
Q 2478 3584 2822 3584 
Q 3428 3584 3742 3212 
Q 4056 2841 4056 2131 
z
" transform="scale(0.015625)"/>
      <path id="DejaVuSans-Bold-31" d="M 750 831 
L 1813 831 
L 1813 3847 
L 722 3622 
L 722 4441 
L 1806 4666 
L 2950 4666 
L 2950 831 
L 4013 831 
L 4013 0 
L 750 0 
L 750 831 
z
" transform="scale(0.015625)"/>
     </defs>
     <use xlink:href="#DejaVuSans-Bold-49"/>
     <use xlink:href="#DejaVuSans-Bold-74" transform="translate(37.207031 0)"/>
     <use xlink:href="#DejaVuSans-Bold-65" transform="translate(85.009766 0)"/>
     <use xlink:href="#DejaVuSans-Bold-72" transform="translate(152.832031 0)"/>
     <use xlink:href="#DejaVuSans-Bold-61" transform="translate(202.148438 0)"/>
     <use xlink:href="#DejaVuSans-Bold-74" transform="translate(269.628906 0)"/>
     <use xlink:href="#DejaVuSans-Bold-69" transform="translate(317.431641 0)"/>
     <use xlink:href="#DejaVuSans-Bold-6f" transform="translate(351.708984 0)"/>
     <use xlink:href="#DejaVuSans-Bold-6e" transform="translate(420.410156 0)"/>
     <use xlink:href="#DejaVuSans-Bold-20" transform="translate(491.601562 0)"/>
     <use xlink:href="#DejaVuSans-Bold-31" transform="translate(526.416016 0)"/>
    </g>
   </g>
   <g id="PathCollection_2">
    <defs>
     <path id="maa67b8d962" d="M 0 6.22495 
C 1.650876 6.22495 3.234359 5.56905 4.401704 4.401704 
C 5.56905 3.234359 6.22495 1.650876 6.22495 0 
C 6.22495 -1.650876 5.56905 -3.234359 4.401704 -4.401704 
C 3.234359 -5.56905 1.650876 -6.22495 0 -6.22495 
C -1.650876 -6.22495 -3.234359 -5.56905 -4.401704 -4.401704 
C -5.56905 -3.234359 -6.22495 -1.650876 -6.22495 0 
C -6.22495 1.650876 -5.56905 3.234359 -4.401704 4.401704 
C -3.234359 5.56905 -1.650876 6.22495 0 6.22495 
z
" style="stroke: #ffffff; stroke-width: 1.5"/>
    </defs>
    <g clip-path="url(#p4163df0e39)">
     <use xlink:href="#maa67b8d962" x="192.669234" y="292.1904" style="fill: #ff4b4b; stroke: #ffffff; stroke-width: 1.5"/>
    </g>
   </g>
  </g>
  <g id="axes_2">
   <g id="patch_8">
    <path d="M 407.647298 477 
L 683.260202 477 
L 683.260202 75.24 
L 407.647298 75.24 
z
" style="fill: #fafcff"/>
   </g>
   <g id="matplotlib.axis_3">
    <g id="xtick_4">
     <g id="line2d_13">
      <path d="M 407.647298 477 
L 407.647298 75.24 
" clip-path="url(#p13e1ac9c8f)" style="fill: none; stroke: #d9e1ef; stroke-opacity: 0.55; stroke-width: 0.7; stroke-linecap: square"/>
     </g>
     <g id="line2d_14"/>
    </g>
    <g id="xtick_5">
     <g id="line2d_15">
      <path d="M 545.45375 477 
L 545.45375 75.24 
" clip-path="url(#p13e1ac9c8f)" style="fill: none; stroke: #d9e1ef; stroke-opacity: 0.55; stroke-width: 0.7; stroke-linecap: square"/>
     </g>
     <g id="line2d_16"/>
    </g>
    <g id="xtick_6">
     <g id="line2d_17">
      <path d="M 683.260202 477 
L 683.260202 75.24 
" clip-path="url(#p13e1ac9c8f)" style="fill: none; stroke: #d9e1ef; stroke-opacity: 0.55; stroke-width: 0.7; stroke-linecap: square"/>
     </g>
     <g id="line2d_18"/>
    </g>
    <g id="text_5">
     <!-- Feature x -->
     <g style="fill: #253047" transform="translate(513.35 496.118125) scale(0.12 -0.12)">
      <use xlink:href="#DejaVuSans-Bold-46"/>
      <use xlink:href="#DejaVuSans-Bold-65" transform="translate(64.310547 0)"/>
      <use xlink:href="#DejaVuSans-Bold-61" transform="translate(132.132812 0)"/>
      <use xlink:href="#DejaVuSans-Bold-74" transform="translate(199.613281 0)"/>
      <use xlink:href="#DejaVuSans-Bold-75" transform="translate(247.416016 0)"/>
      <use xlink:href="#DejaVuSans-Bold-72" transform="translate(318.607422 0)"/>
      <use xlink:href="#DejaVuSans-Bold-65" transform="translate(367.923828 0)"/>
      <use xlink:href="#DejaVuSans-Bold-20" transform="translate(435.746094 0)"/>
      <use xlink:href="#DejaVuSans-Bold-78" transform="translate(470.560547 0)"/>
     </g>
    </g>
   </g>
   <g id="matplotlib.axis_4">
    <g id="ytick_4">
     <g id="line2d_19">
      <path d="M 407.647298 477 
L 683.260202 477 
" clip-path="url(#p13e1ac9c8f)" style="fill: none; stroke: #d9e1ef; stroke-opacity: 0.55; stroke-width: 0.7; stroke-linecap: square"/>
     </g>
     <g id="line2d_20"/>
    </g>
    <g id="ytick_5">
     <g id="line2d_21">
      <path d="M 407.647298 276.12 
L 683.260202 276.12 
" clip-path="url(#p13e1ac9c8f)" style="fill: none; stroke: #d9e1ef; stroke-opacity: 0.55; stroke-width: 0.7; stroke-linecap: square"/>
     </g>
     <g id="line2d_22"/>
    </g>
    <g id="ytick_6">
     <g id="line2d_23">
      <path d="M 407.647298 75.24 
L 683.260202 75.24 
" clip-path="url(#p13e1ac9c8f)" style="fill: none; stroke: #d9e1ef; stroke-opacity: 0.55; stroke-width: 0.7; stroke-linecap: square"/>
     </g>
     <g id="line2d_24"/>
    </g>
   </g>
   <g id="patch_9">
    <path d="M 564.746653 300.2256 
L 630.89375 300.2256 
L 630.89375 211.8384 
L 564.746653 211.8384 
L 564.746653 300.2256 
z
" clip-path="url(#p13e1ac9c8f)" style="fill: none; opacity: 0.75; stroke-dasharray: 5.6,4.2; stroke-dashoffset: 0; stroke: #ff4b4b; stroke-width: 1.4; stroke-linejoin: miter"/>
   </g>
   <g id="patch_10">
    <path d="M 407.647298 477 
L 407.647298 75.24 
" style="fill: none; stroke: #253047; stroke-width: 1.8; stroke-linejoin: miter; stroke-linecap: square"/>
   </g>
   <g id="patch_11">
    <path d="M 683.260202 477 
L 683.260202 75.24 
" style="fill: none; stroke: #253047; stroke-width: 1.8; stroke-linejoin: miter; stroke-linecap: square"/>
   </g>
   <g id="patch_12">
    <path d="M 407.647298 477 
L 683.260202 477 
" style="fill: none; stroke: #253047; stroke-width: 1.8; stroke-linejoin: miter; stroke-linecap: square"/>
   </g>
   <g id="patch_13">
    <path d="M 407.647298 75.24 
L 683.260202 75.24 
" style="fill: none; stroke: #253047; stroke-width: 1.8; stroke-linejoin: miter; stroke-linecap: square"/>
   </g>
   <g id="PathCollection_3">
    <g clip-path="url(#p13e1ac9c8f)">
     <use xlink:href="#m098430078d" x="509.624073" y="199.7856" style="fill: #2463eb; stroke: #ffffff; stroke-width: 0.8"/>
     <use xlink:href="#m098430078d" x="545.45375" y="199.7856" style="fill: #2463eb; stroke: #ffffff; stroke-width: 0.8"/>
     <use xlink:href="#m098430078d" x="561.990524" y="199.7856" style="fill: #2463eb; stroke: #ffffff; stroke-width: 0.8"/>
     <use xlink:href="#m098430078d" x="597.820202" y="199.7856" style="fill: #2463eb; stroke: #ffffff; stroke-width: 0.8"/>
     <use xlink:href="#m098430078d" x="509.624073" y="260.0496" style="fill: #2463eb; stroke: #ffffff; stroke-width: 0.8"/>
     <use xlink:href="#m098430078d" x="545.45375" y="260.0496" style="fill: #2463eb; stroke: #ffffff; stroke-width: 0.8"/>
     <use xlink:href="#m098430078d" x="561.990524" y="260.0496" style="fill: #2463eb; stroke: #ffffff; stroke-width: 0.8"/>
     <use xlink:href="#m098430078d" x="509.624073" y="296.208" style="fill: #2463eb; stroke: #ffffff; stroke-width: 0.8"/>
     <use xlink:href="#m098430078d" x="545.45375" y="296.208" style="fill: #2463eb; stroke: #ffffff; stroke-width: 0.8"/>
     <use xlink:href="#m098430078d" x="561.990524" y="296.208" style="fill: #2463eb; stroke: #ffffff; stroke-width: 0.8"/>
     <use xlink:href="#m098430078d" x="597.820202" y="296.208" style="fill: #2463eb; stroke: #ffffff; stroke-width: 0.8"/>
     <use xlink:href="#m098430078d" x="509.624073" y="348.4368" style="fill: #2463eb; stroke: #ffffff; stroke-width: 0.8"/>
     <use xlink:href="#m098430078d" x="545.45375" y="348.4368" style="fill: #2463eb; stroke: #ffffff; stroke-width: 0.8"/>
     <use xlink:href="#m098430078d" x="561.990524" y="348.4368" style="fill: #2463eb; stroke: #ffffff; stroke-width: 0.8"/>
     <use xlink:href="#m098430078d" x="597.820202" y="348.4368" style="fill: #2463eb; stroke: #ffffff; stroke-width: 0.8"/>
    </g>
   </g>
   <g id="text_6">
    <!-- Refined local search -->
    <g style="fill: #657087" transform="translate(492.607578 531.180759) scale(0.105 -0.105)">
     <defs>
      <path id="DejaVuSans-52" d="M 2841 2188 
Q 3044 2119 3236 1894 
Q 3428 1669 3622 1275 
L 4263 0 
L 3584 0 
L 2988 1197 
Q 2756 1666 2539 1819 
Q 2322 1972 1947 1972 
L 1259 1972 
L 1259 0 
L 628 0 
L 628 4666 
L 2053 4666 
Q 2853 4666 3247 4331 
Q 3641 3997 3641 3322 
Q 3641 2881 3436 2590 
Q 3231 2300 2841 2188 
z
M 1259 4147 
L 1259 2491 
L 2053 2491 
Q 2509 2491 2742 2702 
Q 2975 2913 2975 3322 
Q 2975 3731 2742 3939 
Q 2509 4147 2053 4147 
L 1259 4147 
z
" transform="scale(0.015625)"/>
      <path id="DejaVuSans-66" d="M 2375 4863 
L 2375 4384 
L 1825 4384 
Q 1516 4384 1395 4259 
Q 1275 4134 1275 3809 
L 1275 3500 
L 2222 3500 
L 2222 3053 
L 1275 3053 
L 1275 0 
L 697 0 
L 697 3053 
L 147 3053 
L 147 3500 
L 697 3500 
L 697 3744 
Q 697 4328 969 4595 
Q 1241 4863 1831 4863 
L 2375 4863 
z
" transform="scale(0.015625)"/>
      <path id="DejaVuSans-69" d="M 603 3500 
L 1178 3500 
L 1178 0 
L 603 0 
L 603 3500 
z
M 603 4863 
L 1178 4863 
L 1178 4134 
L 603 4134 
L 603 4863 
z
" transform="scale(0.015625)"/>
      <path id="DejaVuSans-6e" d="M 3513 2113 
L 3513 0 
L 2938 0 
L 2938 2094 
Q 2938 2591 2744 2837 
Q 2550 3084 2163 3084 
Q 1697 3084 1428 2787 
Q 1159 2491 1159 1978 
L 1159 0 
L 581 0 
L 581 3500 
L 1159 3500 
L 1159 2956 
Q 1366 3272 1645 3428 
Q 1925 3584 2291 3584 
Q 2894 3584 3203 3211 
Q 3513 2838 3513 2113 
z
" transform="scale(0.015625)"/>
      <path id="DejaVuSans-6c" d="M 603 4863 
L 1178 4863 
L 1178 0 
L 603 0 
L 603 4863 
z
" transform="scale(0.015625)"/>
     </defs>
     <use xlink:href="#DejaVuSans-52"/>
     <use xlink:href="#DejaVuSans-65" transform="translate(64.982422 0)"/>
     <use xlink:href="#DejaVuSans-66" transform="translate(126.505859 0)"/>
     <use xlink:href="#DejaVuSans-69" transform="translate(161.710938 0)"/>
     <use xlink:href="#DejaVuSans-6e" transform="translate(189.494141 0)"/>
     <use xlink:href="#DejaVuSans-65" transform="translate(252.873047 0)"/>
     <use xlink:href="#DejaVuSans-64" transform="translate(314.396484 0)"/>
     <use xlink:href="#DejaVuSans-20" transform="translate(377.873047 0)"/>
     <use xlink:href="#DejaVuSans-6c" transform="translate(409.660156 0)"/>
     <use xlink:href="#DejaVuSans-6f" transform="translate(437.443359 0)"/>
     <use xlink:href="#DejaVuSans-63" transform="translate(498.625 0)"/>
     <use xlink:href="#DejaVuSans-61" transform="translate(553.605469 0)"/>
     <use xlink:href="#DejaVuSans-6c" transform="translate(614.884766 0)"/>
     <use xlink:href="#DejaVuSans-20" transform="translate(642.667969 0)"/>
     <use xlink:href="#DejaVuSans-73" transform="translate(674.455078 0)"/>
     <use xlink:href="#DejaVuSans-65" transform="translate(726.554688 0)"/>
     <use xlink:href="#DejaVuSans-61" transform="translate(788.078125 0)"/>
     <use xlink:href="#DejaVuSans-72" transform="translate(849.357422 0)"/>
     <use xlink:href="#DejaVuSans-63" transform="translate(888.220703 0)"/>
     <use xlink:href="#DejaVuSans-68" transform="translate(943.201172 0)"/>
    </g>
   </g>
   <g id="text_7">
    <!-- Iteration 2 -->
    <g style="fill: #253047" transform="translate(503.734844 62.24) scale(0.14 -0.14)">
     <defs>
      <path id="DejaVuSans-Bold-32" d="M 1844 884 
L 3897 884 
L 3897 0 
L 506 0 
L 506 884 
L 2209 2388 
Q 2438 2594 2547 2791 
Q 2656 2988 2656 3200 
Q 2656 3528 2436 3728 
Q 2216 3928 1850 3928 
Q 1569 3928 1234 3808 
Q 900 3688 519 3450 
L 519 4475 
Q 925 4609 1322 4679 
Q 1719 4750 2100 4750 
Q 2938 4750 3402 4381 
Q 3866 4013 3866 3353 
Q 3866 2972 3669 2642 
Q 3472 2313 2841 1759 
L 1844 884 
z
" transform="scale(0.015625)"/>
     </defs>
     <use xlink:href="#DejaVuSans-Bold-49"/>
     <use xlink:href="#DejaVuSans-Bold-74" transform="translate(37.207031 0)"/>
     <use xlink:href="#DejaVuSans-Bold-65" transform="translate(85.009766 0)"/>
     <use xlink:href="#DejaVuSans-Bold-72" transform="translate(152.832031 0)"/>
     <use xlink:href="#DejaVuSans-Bold-61" transform="translate(202.148438 0)"/>
     <use xlink:href="#DejaVuSans-Bold-74" transform="translate(269.628906 0)"/>
     <use xlink:href="#DejaVuSans-Bold-69" transform="translate(317.431641 0)"/>
     <use xlink:href="#DejaVuSans-Bold-6f" transform="translate(351.708984 0)"/>
     <use xlink:href="#DejaVuSans-Bold-6e" transform="translate(420.410156 0)"/>
     <use xlink:href="#DejaVuSans-Bold-20" transform="translate(491.601562 0)"/>
     <use xlink:href="#DejaVuSans-Bold-32" transform="translate(526.416016 0)"/>
    </g>
   </g>
   <g id="PathCollection_4">
    <g clip-path="url(#p13e1ac9c8f)">
     <use xlink:href="#maa67b8d962" x="597.820202" y="256.032" style="fill: #ff4b4b; stroke: #ffffff; stroke-width: 1.5"/>
    </g>
   </g>
  </g>
  <g id="axes_3">
   <g id="patch_14">
    <path d="M 782.480847 477 
L 1058.09375 477 
L 1058.09375 75.24 
L 782.480847 75.24 
z
" style="fill: #fafcff"/>
   </g>
   <g id="matplotlib.axis_5">
    <g id="xtick_7">
     <g id="line2d_25">
      <path d="M 782.480847 477 
L 782.480847 75.24 
" clip-path="url(#p3423f9cbb0)" style="fill: none; stroke: #d9e1ef; stroke-opacity: 0.55; stroke-width: 0.7; stroke-linecap: square"/>
     </g>
     <g id="line2d_26"/>
    </g>
    <g id="xtick_8">
     <g id="line2d_27">
      <path d="M 920.287298 477 
L 920.287298 75.24 
" clip-path="url(#p3423f9cbb0)" style="fill: none; stroke: #d9e1ef; stroke-opacity: 0.55; stroke-width: 0.7; stroke-linecap: square"/>
     </g>
     <g id="line2d_28"/>
    </g>
    <g id="xtick_9">
     <g id="line2d_29">
      <path d="M 1058.09375 477 
L 1058.09375 75.24 
" clip-path="url(#p3423f9cbb0)" style="fill: none; stroke: #d9e1ef; stroke-opacity: 0.55; stroke-width: 0.7; stroke-linecap: square"/>
     </g>
     <g id="line2d_30"/>
    </g>
    <g id="text_8">
     <!-- Feature x -->
     <g style="fill: #253047" transform="translate(888.183548 496.118125) scale(0.12 -0.12)">
      <use xlink:href="#DejaVuSans-Bold-46"/>
      <use xlink:href="#DejaVuSans-Bold-65" transform="translate(64.310547 0)"/>
      <use xlink:href="#DejaVuSans-Bold-61" transform="translate(132.132812 0)"/>
      <use xlink:href="#DejaVuSans-Bold-74" transform="translate(199.613281 0)"/>
      <use xlink:href="#DejaVuSans-Bold-75" transform="translate(247.416016 0)"/>
      <use xlink:href="#DejaVuSans-Bold-72" transform="translate(318.607422 0)"/>
      <use xlink:href="#DejaVuSans-Bold-65" transform="translate(367.923828 0)"/>
      <use xlink:href="#DejaVuSans-Bold-20" transform="translate(435.746094 0)"/>
      <use xlink:href="#DejaVuSans-Bold-78" transform="translate(470.560547 0)"/>
     </g>
    </g>
   </g>
   <g id="matplotlib.axis_6">
    <g id="ytick_7">
     <g id="line2d_31">
      <path d="M 782.480847 477 
L 1058.09375 477 
" clip-path="url(#p3423f9cbb0)" style="fill: none; stroke: #d9e1ef; stroke-opacity: 0.55; stroke-width: 0.7; stroke-linecap: square"/>
     </g>
     <g id="line2d_32"/>
    </g>
    <g id="ytick_8">
     <g id="line2d_33">
      <path d="M 782.480847 276.12 
L 1058.09375 276.12 
" clip-path="url(#p3423f9cbb0)" style="fill: none; stroke: #d9e1ef; stroke-opacity: 0.55; stroke-width: 0.7; stroke-linecap: square"/>
     </g>
     <g id="line2d_34"/>
    </g>
    <g id="ytick_9">
     <g id="line2d_35">
      <path d="M 782.480847 75.24 
L 1058.09375 75.24 
" clip-path="url(#p3423f9cbb0)" style="fill: none; stroke: #d9e1ef; stroke-opacity: 0.55; stroke-width: 0.7; stroke-linecap: square"/>
     </g>
     <g id="line2d_36"/>
    </g>
   </g>
   <g id="patch_15">
    <path d="M 925.799556 300.2256 
L 991.946653 300.2256 
L 991.946653 211.8384 
L 925.799556 211.8384 
L 925.799556 300.2256 
z
" clip-path="url(#p3423f9cbb0)" style="fill: none; opacity: 0.75; stroke-dasharray: 5.6,4.2; stroke-dashoffset: 0; stroke: #ff4b4b; stroke-width: 1.4; stroke-linejoin: miter"/>
   </g>
   <g id="patch_16">
    <path d="M 782.480847 477 
L 782.480847 75.24 
" style="fill: none; stroke: #253047; stroke-width: 1.8; stroke-linejoin: miter; stroke-linecap: square"/>
   </g>
   <g id="patch_17">
    <path d="M 1058.09375 477 
L 1058.09375 75.24 
" style="fill: none; stroke: #253047; stroke-width: 1.8; stroke-linejoin: miter; stroke-linecap: square"/>
   </g>
   <g id="patch_18">
    <path d="M 782.480847 477 
L 1058.09375 477 
" style="fill: none; stroke: #253047; stroke-width: 1.8; stroke-linejoin: miter; stroke-linecap: square"/>
   </g>
   <g id="patch_19">
    <path d="M 782.480847 75.24 
L 1058.09375 75.24 
" style="fill: none; stroke: #253047; stroke-width: 1.8; stroke-linejoin: miter; stroke-linecap: square"/>
   </g>
   <g id="PathCollection_5">
    <g clip-path="url(#p3423f9cbb0)">
     <use xlink:href="#m098430078d" x="914.77504" y="227.9088" style="fill: #2463eb; stroke: #ffffff; stroke-width: 0.8"/>
     <use xlink:href="#m098430078d" x="936.824073" y="227.9088" style="fill: #2463eb; stroke: #ffffff; stroke-width: 0.8"/>
     <use xlink:href="#m098430078d" x="958.873105" y="227.9088" style="fill: #2463eb; stroke: #ffffff; stroke-width: 0.8"/>
     <use xlink:href="#m098430078d" x="980.922137" y="227.9088" style="fill: #2463eb; stroke: #ffffff; stroke-width: 0.8"/>
     <use xlink:href="#m098430078d" x="914.77504" y="256.032" style="fill: #2463eb; stroke: #ffffff; stroke-width: 0.8"/>
     <use xlink:href="#m098430078d" x="936.824073" y="256.032" style="fill: #2463eb; stroke: #ffffff; stroke-width: 0.8"/>
     <use xlink:href="#m098430078d" x="980.922137" y="256.032" style="fill: #2463eb; stroke: #ffffff; stroke-width: 0.8"/>
     <use xlink:href="#m098430078d" x="914.77504" y="280.1376" style="fill: #2463eb; stroke: #ffffff; stroke-width: 0.8"/>
     <use xlink:href="#m098430078d" x="936.824073" y="280.1376" style="fill: #2463eb; stroke: #ffffff; stroke-width: 0.8"/>
     <use xlink:href="#m098430078d" x="958.873105" y="280.1376" style="fill: #2463eb; stroke: #ffffff; stroke-width: 0.8"/>
     <use xlink:href="#m098430078d" x="980.922137" y="280.1376" style="fill: #2463eb; stroke: #ffffff; stroke-width: 0.8"/>
     <use xlink:href="#m098430078d" x="914.77504" y="304.2432" style="fill: #2463eb; stroke: #ffffff; stroke-width: 0.8"/>
     <use xlink:href="#m098430078d" x="936.824073" y="304.2432" style="fill: #2463eb; stroke: #ffffff; stroke-width: 0.8"/>
     <use xlink:href="#m098430078d" x="958.873105" y="304.2432" style="fill: #2463eb; stroke: #ffffff; stroke-width: 0.8"/>
     <use xlink:href="#m098430078d" x="980.922137" y="304.2432" style="fill: #2463eb; stroke: #ffffff; stroke-width: 0.8"/>
    </g>
   </g>
   <g id="text_9">
    <!-- Fine local search -->
    <g style="fill: #657087" transform="translate(876.625345 531.180759) scale(0.105 -0.105)">
     <defs>
      <path id="DejaVuSans-46" d="M 628 4666 
L 3309 4666 
L 3309 4134 
L 1259 4134 
L 1259 2759 
L 3109 2759 
L 3109 2228 
L 1259 2228 
L 1259 0 
L 628 0 
L 628 4666 
z
" transform="scale(0.015625)"/>
     </defs>
     <use xlink:href="#DejaVuSans-46"/>
     <use xlink:href="#DejaVuSans-69" transform="translate(50.269531 0)"/>
     <use xlink:href="#DejaVuSans-6e" transform="translate(78.052734 0)"/>
     <use xlink:href="#DejaVuSans-65" transform="translate(141.431641 0)"/>
     <use xlink:href="#DejaVuSans-20" transform="translate(202.955078 0)"/>
     <use xlink:href="#DejaVuSans-6c" transform="translate(234.742188 0)"/>
     <use xlink:href="#DejaVuSans-6f" transform="translate(262.525391 0)"/>
     <use xlink:href="#DejaVuSans-63" transform="translate(323.707031 0)"/>
     <use xlink:href="#DejaVuSans-61" transform="translate(378.6875 0)"/>
     <use xlink:href="#DejaVuSans-6c" transform="translate(439.966797 0)"/>
     <use xlink:href="#DejaVuSans-20" transform="translate(467.75 0)"/>
     <use xlink:href="#DejaVuSans-73" transform="translate(499.537109 0)"/>
     <use xlink:href="#DejaVuSans-65" transform="translate(551.636719 0)"/>
     <use xlink:href="#DejaVuSans-61" transform="translate(613.160156 0)"/>
     <use xlink:href="#DejaVuSans-72" transform="translate(674.439453 0)"/>
     <use xlink:href="#DejaVuSans-63" transform="translate(713.302734 0)"/>
     <use xlink:href="#DejaVuSans-68" transform="translate(768.283203 0)"/>
    </g>
   </g>
   <g id="text_10">
    <!-- Iteration 3 -->
    <g style="fill: #253047" transform="translate(878.568392 62.24) scale(0.14 -0.14)">
     <defs>
      <path id="DejaVuSans-Bold-33" d="M 2981 2516 
Q 3453 2394 3698 2092 
Q 3944 1791 3944 1325 
Q 3944 631 3412 270 
Q 2881 -91 1863 -91 
Q 1503 -91 1142 -33 
Q 781 25 428 141 
L 428 1069 
Q 766 900 1098 814 
Q 1431 728 1753 728 
Q 2231 728 2486 893 
Q 2741 1059 2741 1369 
Q 2741 1688 2480 1852 
Q 2219 2016 1709 2016 
L 1228 2016 
L 1228 2791 
L 1734 2791 
Q 2188 2791 2409 2933 
Q 2631 3075 2631 3366 
Q 2631 3634 2415 3781 
Q 2200 3928 1806 3928 
Q 1516 3928 1219 3862 
Q 922 3797 628 3669 
L 628 4550 
Q 984 4650 1334 4700 
Q 1684 4750 2022 4750 
Q 2931 4750 3382 4451 
Q 3834 4153 3834 3553 
Q 3834 3144 3618 2883 
Q 3403 2622 2981 2516 
z
" transform="scale(0.015625)"/>
     </defs>
     <use xlink:href="#DejaVuSans-Bold-49"/>
     <use xlink:href="#DejaVuSans-Bold-74" transform="translate(37.207031 0)"/>
     <use xlink:href="#DejaVuSans-Bold-65" transform="translate(85.009766 0)"/>
     <use xlink:href="#DejaVuSans-Bold-72" transform="translate(152.832031 0)"/>
     <use xlink:href="#DejaVuSans-Bold-61" transform="translate(202.148438 0)"/>
     <use xlink:href="#DejaVuSans-Bold-74" transform="translate(269.628906 0)"/>
     <use xlink:href="#DejaVuSans-Bold-69" transform="translate(317.431641 0)"/>
     <use xlink:href="#DejaVuSans-Bold-6f" transform="translate(351.708984 0)"/>
     <use xlink:href="#DejaVuSans-Bold-6e" transform="translate(420.410156 0)"/>
     <use xlink:href="#DejaVuSans-Bold-20" transform="translate(491.601562 0)"/>
     <use xlink:href="#DejaVuSans-Bold-33" transform="translate(526.416016 0)"/>
    </g>
   </g>
   <g id="PathCollection_6">
    <g clip-path="url(#p3423f9cbb0)">
     <use xlink:href="#maa67b8d962" x="958.873105" y="256.032" style="fill: #ff4b4b; stroke: #ffffff; stroke-width: 1.5"/>
    </g>
   </g>
  </g>
  <g id="text_11">
   <!-- Iterative Coarse-to-Fine Search -->
   <g style="fill: #253047" transform="translate(32.81375 25.43625) scale(0.24 -0.24)">
    <defs>
     <path id="DejaVuSans-Bold-76" d="M 97 3500 
L 1216 3500 
L 2088 1081 
L 2956 3500 
L 4078 3500 
L 2700 0 
L 1472 0 
L 97 3500 
z
" transform="scale(0.015625)"/>
     <path id="DejaVuSans-Bold-43" d="M 4288 256 
Q 3956 84 3597 -3 
Q 3238 -91 2847 -91 
Q 1681 -91 1000 561 
Q 319 1213 319 2328 
Q 319 3447 1000 4098 
Q 1681 4750 2847 4750 
Q 3238 4750 3597 4662 
Q 3956 4575 4288 4403 
L 4288 3438 
Q 3953 3666 3628 3772 
Q 3303 3878 2944 3878 
Q 2300 3878 1931 3465 
Q 1563 3053 1563 2328 
Q 1563 1606 1931 1193 
Q 2300 781 2944 781 
Q 3303 781 3628 887 
Q 3953 994 4288 1222 
L 4288 256 
z
" transform="scale(0.015625)"/>
     <path id="DejaVuSans-Bold-73" d="M 3272 3391 
L 3272 2541 
Q 2913 2691 2578 2766 
Q 2244 2841 1947 2841 
Q 1628 2841 1473 2761 
Q 1319 2681 1319 2516 
Q 1319 2381 1436 2309 
Q 1553 2238 1856 2203 
L 2053 2175 
Q 2913 2066 3209 1816 
Q 3506 1566 3506 1031 
Q 3506 472 3093 190 
Q 2681 -91 1863 -91 
Q 1516 -91 1145 -36 
Q 775 19 384 128 
L 384 978 
Q 719 816 1070 734 
Q 1422 653 1784 653 
Q 2113 653 2278 743 
Q 2444 834 2444 1013 
Q 2444 1163 2330 1236 
Q 2216 1309 1875 1350 
L 1678 1375 
Q 931 1469 631 1722 
Q 331 1975 331 2491 
Q 331 3047 712 3315 
Q 1094 3584 1881 3584 
Q 2191 3584 2531 3537 
Q 2872 3491 3272 3391 
z
" transform="scale(0.015625)"/>
     <path id="DejaVuSans-Bold-2d" d="M 347 2297 
L 2309 2297 
L 2309 1388 
L 347 1388 
L 347 2297 
z
" transform="scale(0.015625)"/>
     <path id="DejaVuSans-Bold-53" d="M 3834 4519 
L 3834 3531 
Q 3450 3703 3084 3790 
Q 2719 3878 2394 3878 
Q 1963 3878 1756 3759 
Q 1550 3641 1550 3391 
Q 1550 3203 1689 3098 
Q 1828 2994 2194 2919 
L 2706 2816 
Q 3484 2659 3812 2340 
Q 4141 2022 4141 1434 
Q 4141 663 3683 286 
Q 3225 -91 2284 -91 
Q 1841 -91 1394 -6 
Q 947 78 500 244 
L 500 1259 
Q 947 1022 1364 901 
Q 1781 781 2169 781 
Q 2563 781 2772 912 
Q 2981 1044 2981 1288 
Q 2981 1506 2839 1625 
Q 2697 1744 2272 1838 
L 1806 1941 
Q 1106 2091 782 2419 
Q 459 2747 459 3303 
Q 459 4000 909 4375 
Q 1359 4750 2203 4750 
Q 2588 4750 2994 4692 
Q 3400 4634 3834 4519 
z
" transform="scale(0.015625)"/>
     <path id="DejaVuSans-Bold-63" d="M 3366 3391 
L 3366 2478 
Q 3138 2634 2908 2709 
Q 2678 2784 2431 2784 
Q 1963 2784 1702 2511 
Q 1441 2238 1441 1747 
Q 1441 1256 1702 982 
Q 1963 709 2431 709 
Q 2694 709 2930 787 
Q 3166 866 3366 1019 
L 3366 103 
Q 3103 6 2833 -42 
Q 2563 -91 2291 -91 
Q 1344 -91 809 395 
Q 275 881 275 1747 
Q 275 2613 809 3098 
Q 1344 3584 2291 3584 
Q 2566 3584 2833 3536 
Q 3100 3488 3366 3391 
z
" transform="scale(0.015625)"/>
     <path id="DejaVuSans-Bold-68" d="M 4056 2131 
L 4056 0 
L 2931 0 
L 2931 347 
L 2931 1625 
Q 2931 2084 2911 2256 
Q 2891 2428 2841 2509 
Q 2775 2619 2662 2680 
Q 2550 2741 2406 2741 
Q 2056 2741 1856 2470 
Q 1656 2200 1656 1722 
L 1656 0 
L 538 0 
L 538 4863 
L 1656 4863 
L 1656 2988 
Q 1909 3294 2193 3439 
Q 2478 3584 2822 3584 
Q 3428 3584 3742 3212 
Q 4056 2841 4056 2131 
z
" transform="scale(0.015625)"/>
    </defs>
    <use xlink:href="#DejaVuSans-Bold-49"/>
    <use xlink:href="#DejaVuSans-Bold-74" transform="translate(37.207031 0)"/>
    <use xlink:href="#DejaVuSans-Bold-65" transform="translate(85.009766 0)"/>
    <use xlink:href="#DejaVuSans-Bold-72" transform="translate(152.832031 0)"/>
    <use xlink:href="#DejaVuSans-Bold-61" transform="translate(202.148438 0)"/>
    <use xlink:href="#DejaVuSans-Bold-74" transform="translate(269.628906 0)"/>
    <use xlink:href="#DejaVuSans-Bold-69" transform="translate(317.431641 0)"/>
    <use xlink:href="#DejaVuSans-Bold-76" transform="translate(351.708984 0)"/>
    <use xlink:href="#DejaVuSans-Bold-65" transform="translate(416.894531 0)"/>
    <use xlink:href="#DejaVuSans-Bold-20" transform="translate(484.716797 0)"/>
    <use xlink:href="#DejaVuSans-Bold-43" transform="translate(519.53125 0)"/>
    <use xlink:href="#DejaVuSans-Bold-6f" transform="translate(592.919922 0)"/>
    <use xlink:href="#DejaVuSans-Bold-61" transform="translate(661.621094 0)"/>
    <use xlink:href="#DejaVuSans-Bold-72" transform="translate(729.101562 0)"/>
    <use xlink:href="#DejaVuSans-Bold-73" transform="translate(778.417969 0)"/>
    <use xlink:href="#DejaVuSans-Bold-65" transform="translate(837.939453 0)"/>
    <use xlink:href="#DejaVuSans-Bold-2d" transform="translate(905.761719 0)"/>
    <use xlink:href="#DejaVuSans-Bold-74" transform="translate(947.265625 0)"/>
    <use xlink:href="#DejaVuSans-Bold-6f" transform="translate(995.068359 0)"/>
    <use xlink:href="#DejaVuSans-Bold-2d" transform="translate(1063.769531 0)"/>
    <use xlink:href="#DejaVuSans-Bold-46" transform="translate(1105.273438 0)"/>
    <use xlink:href="#DejaVuSans-Bold-69" transform="translate(1173.583984 0)"/>
    <use xlink:href="#DejaVuSans-Bold-6e" transform="translate(1207.861328 0)"/>
    <use xlink:href="#DejaVuSans-Bold-65" transform="translate(1279.052734 0)"/>
    <use xlink:href="#DejaVuSans-Bold-20" transform="translate(1346.875 0)"/>
    <use xlink:href="#DejaVuSans-Bold-53" transform="translate(1381.689453 0)"/>
    <use xlink:href="#DejaVuSans-Bold-65" transform="translate(1453.710938 0)"/>
    <use xlink:href="#DejaVuSans-Bold-61" transform="translate(1521.533203 0)"/>
    <use xlink:href="#DejaVuSans-Bold-72" transform="translate(1589.013672 0)"/>
    <use xlink:href="#DejaVuSans-Bold-63" transform="translate(1638.330078 0)"/>
    <use xlink:href="#DejaVuSans-Bold-68" transform="translate(1697.607422 0)"/>
   </g>
  </g>
  <g id="text_12">
   <!-- The search range narrows around the best candidate at each iteration. -->
   <g style="fill: #657087" transform="translate(32.81375 39.6) scale(0.12 -0.12)">
    <defs>
     <path id="DejaVuSans-54" d="M -19 4666 
L 3928 4666 
L 3928 4134 
L 2272 4134 
L 2272 0 
L 1638 0 
L 1638 4134 
L -19 4134 
L -19 4666 
z
" transform="scale(0.015625)"/>
     <path id="DejaVuSans-67" d="M 2906 1791 
Q 2906 2416 2648 2759 
Q 2391 3103 1925 3103 
Q 1463 3103 1205 2759 
Q 947 2416 947 1791 
Q 947 1169 1205 825 
Q 1463 481 1925 481 
Q 2391 481 2648 825 
Q 2906 1169 2906 1791 
z
M 3481 434 
Q 3481 -459 3084 -895 
Q 2688 -1331 1869 -1331 
Q 1566 -1331 1297 -1286 
Q 1028 -1241 775 -1147 
L 775 -588 
Q 1028 -725 1275 -790 
Q 1522 -856 1778 -856 
Q 2344 -856 2625 -561 
Q 2906 -266 2906 331 
L 2906 616 
Q 2728 306 2450 153 
Q 2172 0 1784 0 
Q 1141 0 747 490 
Q 353 981 353 1791 
Q 353 2603 747 3093 
Q 1141 3584 1784 3584 
Q 2172 3584 2450 3431 
Q 2728 3278 2906 2969 
L 2906 3500 
L 3481 3500 
L 3481 434 
z
" transform="scale(0.015625)"/>
     <path id="DejaVuSans-77" d="M 269 3500 
L 844 3500 
L 1563 769 
L 2278 3500 
L 2956 3500 
L 3675 769 
L 4391 3500 
L 4966 3500 
L 4050 0 
L 3372 0 
L 2619 2869 
L 1863 0 
L 1184 0 
L 269 3500 
z
" transform="scale(0.015625)"/>
     <path id="DejaVuSans-75" d="M 544 1381 
L 544 3500 
L 1119 3500 
L 1119 1403 
Q 1119 906 1312 657 
Q 1506 409 1894 409 
Q 2359 409 2629 706 
Q 2900 1003 2900 1516 
L 2900 3500 
L 3475 3500 
L 3475 0 
L 2900 0 
L 2900 538 
Q 2691 219 2414 64 
Q 2138 -91 1772 -91 
Q 1169 -91 856 284 
Q 544 659 544 1381 
z
M 1991 3584 
L 1991 3584 
z
" transform="scale(0.015625)"/>
     <path id="DejaVuSans-74" d="M 1172 4494 
L 1172 3500 
L 2356 3500 
L 2356 3053 
L 1172 3053 
L 1172 1153 
Q 1172 725 1289 603 
Q 1406 481 1766 481 
L 2356 481 
L 2356 0 
L 1766 0 
Q 1100 0 847 248 
Q 594 497 594 1153 
L 594 3053 
L 172 3053 
L 172 3500 
L 594 3500 
L 594 4494 
L 1172 4494 
z
" transform="scale(0.015625)"/>
     <path id="DejaVuSans-62" d="M 3116 1747 
Q 3116 2381 2855 2742 
Q 2594 3103 2138 3103 
Q 1681 3103 1420 2742 
Q 1159 2381 1159 1747 
Q 1159 1113 1420 752 
Q 1681 391 2138 391 
Q 2594 391 2855 752 
Q 3116 1113 3116 1747 
z
M 1159 2969 
Q 1341 3281 1617 3432 
Q 1894 3584 2278 3584 
Q 2916 3584 3314 3078 
Q 3713 2572 3713 1747 
Q 3713 922 3314 415 
Q 2916 -91 2278 -91 
Q 1894 -91 1617 61 
Q 1341 213 1159 525 
L 1159 0 
L 581 0 
L 581 4863 
L 1159 4863 
L 1159 2969 
z
" transform="scale(0.015625)"/>
     <path id="DejaVuSans-2e" d="M 684 794 
L 1344 794 
L 1344 0 
L 684 0 
L 684 794 
z
" transform="scale(0.015625)"/>
    </defs>
    <use xlink:href="#DejaVuSans-54"/>
    <use xlink:href="#DejaVuSans-68" transform="translate(61.083984 0)"/>
    <use xlink:href="#DejaVuSans-65" transform="translate(124.462891 0)"/>
    <use xlink:href="#DejaVuSans-20" transform="translate(185.986328 0)"/>
    <use xlink:href="#DejaVuSans-73" transform="translate(217.773438 0)"/>
    <use xlink:href="#DejaVuSans-65" transform="translate(269.873047 0)"/>
    <use xlink:href="#DejaVuSans-61" transform="translate(331.396484 0)"/>
    <use xlink:href="#DejaVuSans-72" transform="translate(392.675781 0)"/>
    <use xlink:href="#DejaVuSans-63" transform="translate(431.539062 0)"/>
    <use xlink:href="#DejaVuSans-68" transform="translate(486.519531 0)"/>
    <use xlink:href="#DejaVuSans-20" transform="translate(549.898438 0)"/>
    <use xlink:href="#DejaVuSans-72" transform="translate(581.685547 0)"/>
    <use xlink:href="#DejaVuSans-61" transform="translate(622.798828 0)"/>
    <use xlink:href="#DejaVuSans-6e" transform="translate(684.078125 0)"/>
    <use xlink:href="#DejaVuSans-67" transform="translate(747.457031 0)"/>
    <use xlink:href="#DejaVuSans-65" transform="translate(810.933594 0)"/>
    <use xlink:href="#DejaVuSans-20" transform="translate(872.457031 0)"/>
    <use xlink:href="#DejaVuSans-6e" transform="translate(904.244141 0)"/>
    <use xlink:href="#DejaVuSans-61" transform="translate(967.623047 0)"/>
    <use xlink:href="#DejaVuSans-72" transform="translate(1028.902344 0)"/>
    <use xlink:href="#DejaVuSans-72" transform="translate(1068.265625 0)"/>
    <use xlink:href="#DejaVuSans-6f" transform="translate(1107.128906 0)"/>
    <use xlink:href="#DejaVuSans-77" transform="translate(1168.310547 0)"/>
    <use xlink:href="#DejaVuSans-73" transform="translate(1250.097656 0)"/>
    <use xlink:href="#DejaVuSans-20" transform="translate(1302.197266 0)"/>
    <use xlink:href="#DejaVuSans-61" transform="translate(1333.984375 0)"/>
    <use xlink:href="#DejaVuSans-72" transform="translate(1395.263672 0)"/>
    <use xlink:href="#DejaVuSans-6f" transform="translate(1434.126953 0)"/>
    <use xlink:href="#DejaVuSans-75" transform="translate(1495.308594 0)"/>
    <use xlink:href="#DejaVuSans-6e" transform="translate(1558.6875 0)"/>
    <use xlink:href="#DejaVuSans-64" transform="translate(1622.066406 0)"/>
    <use xlink:href="#DejaVuSans-20" transform="translate(1685.542969 0)"/>
    <use xlink:href="#DejaVuSans-74" transform="translate(1717.330078 0)"/>
    <use xlink:href="#DejaVuSans-68" transform="translate(1756.539062 0)"/>
    <use xlink:href="#DejaVuSans-65" transform="translate(1819.917969 0)"/>
    <use xlink:href="#DejaVuSans-20" transform="translate(1881.441406 0)"/>
    <use xlink:href="#DejaVuSans-62" transform="translate(1913.228516 0)"/>
    <use xlink:href="#DejaVuSans-65" transform="translate(1976.705078 0)"/>
    <use xlink:href="#DejaVuSans-73" transform="translate(2038.228516 0)"/>
    <use xlink:href="#DejaVuSans-74" transform="translate(2090.328125 0)"/>
    <use xlink:href="#DejaVuSans-20" transform="translate(2129.537109 0)"/>
    <use xlink:href="#DejaVuSans-63" transform="translate(2161.324219 0)"/>
    <use xlink:href="#DejaVuSans-61" transform="translate(2216.304688 0)"/>
    <use xlink:href="#DejaVuSans-6e" transform="translate(2277.583984 0)"/>
    <use xlink:href="#DejaVuSans-64" transform="translate(2340.962891 0)"/>
    <use xlink:href="#DejaVuSans-69" transform="translate(2404.439453 0)"/>
    <use xlink:href="#DejaVuSans-64" transform="translate(2432.222656 0)"/>
    <use xlink:href="#DejaVuSans-61" transform="translate(2495.699219 0)"/>
    <use xlink:href="#DejaVuSans-74" transform="translate(2556.978516 0)"/>
    <use xlink:href="#DejaVuSans-65" transform="translate(2596.1875 0)"/>
    <use xlink:href="#DejaVuSans-20" transform="translate(2657.710938 0)"/>
    <use xlink:href="#DejaVuSans-61" transform="translate(2689.498047 0)"/>
    <use xlink:href="#DejaVuSans-74" transform="translate(2750.777344 0)"/>
    <use xlink:href="#DejaVuSans-20" transform="translate(2789.986328 0)"/>
    <use xlink:href="#DejaVuSans-65" transform="translate(2821.773438 0)"/>
    <use xlink:href="#DejaVuSans-61" transform="translate(2883.296875 0)"/>
    <use xlink:href="#DejaVuSans-63" transform="translate(2944.576172 0)"/>
    <use xlink:href="#DejaVuSans-68" transform="translate(2999.556641 0)"/>
    <use xlink:href="#DejaVuSans-20" transform="translate(3062.935547 0)"/>
    <use xlink:href="#DejaVuSans-69" transform="translate(3094.722656 0)"/>
    <use xlink:href="#DejaVuSans-74" transform="translate(3122.505859 0)"/>
    <use xlink:href="#DejaVuSans-65" transform="translate(3161.714844 0)"/>
    <use xlink:href="#DejaVuSans-72" transform="translate(3223.238281 0)"/>
    <use xlink:href="#DejaVuSans-61" transform="translate(3264.351562 0)"/>
    <use xlink:href="#DejaVuSans-74" transform="translate(3325.630859 0)"/>
    <use xlink:href="#DejaVuSans-69" transform="translate(3364.839844 0)"/>
    <use xlink:href="#DejaVuSans-6f" transform="translate(3392.623047 0)"/>
    <use xlink:href="#DejaVuSans-6e" transform="translate(3453.804688 0)"/>
    <use xlink:href="#DejaVuSans-2e" transform="translate(3517.183594 0)"/>
   </g>
  </g>
  <g id="patch_20">
   <path d="M 319.639687 276.12 
Q 358.037613 276.12 394.423078 276.12 
" style="fill: none; stroke: #8793a8; stroke-width: 1.8; stroke-linecap: round"/>
   <path d="M 387.223078 272.52 
L 394.423078 276.12 
L 387.223078 279.72 
z
" style="fill: #8793a8; stroke: #8793a8; stroke-width: 1.8; stroke-linecap: round"/>
  </g>
  <g id="patch_21">
   <path d="M 694.473235 276.12 
Q 732.871161 276.12 769.256626 276.12 
" style="fill: none; stroke: #8793a8; stroke-width: 1.8; stroke-linecap: round"/>
   <path d="M 762.056626 272.52 
L 769.256626 276.12 
L 762.056626 279.72 
z
" style="fill: #8793a8; stroke: #8793a8; stroke-width: 1.8; stroke-linecap: round"/>
  </g>
  <g id="legend_1">
   <g id="line2d_37">
    <path d="M 348.299961 568.611328 
L 356.174961 568.611328 
L 364.049961 568.611328 
" style="fill: none; stroke: #000000; stroke-opacity: 0; stroke-width: 1.5; stroke-linecap: square"/>
    <defs>
     <path id="m0e9df454e4" d="M 0 3.5 
C 0.928211 3.5 1.81853 3.131218 2.474874 2.474874 
C 3.131218 1.81853 3.5 0.928211 3.5 0 
C 3.5 -0.928211 3.131218 -1.81853 2.474874 -2.474874 
C 1.81853 -3.131218 0.928211 -3.5 0 -3.5 
C -0.928211 -3.5 -1.81853 -3.131218 -2.474874 -2.474874 
C -3.131218 -1.81853 -3.5 -0.928211 -3.5 0 
C -3.5 0.928211 -3.131218 1.81853 -2.474874 2.474874 
C -1.81853 3.131218 -0.928211 3.5 0 3.5 
z
" style="stroke: #ffffff"/>
    </defs>
    <g>
     <use xlink:href="#m0e9df454e4" x="356.174961" y="568.611328" style="fill: #2463eb; stroke: #ffffff"/>
    </g>
   </g>
   <g id="text_13">
    <!-- candidates -->
    <g style="fill: #657087" transform="translate(372.449961 572.286328) scale(0.105 -0.105)">
     <use xlink:href="#DejaVuSans-63"/>
     <use xlink:href="#DejaVuSans-61" transform="translate(54.980469 0)"/>
     <use xlink:href="#DejaVuSans-6e" transform="translate(116.259766 0)"/>
     <use xlink:href="#DejaVuSans-64" transform="translate(179.638672 0)"/>
     <use xlink:href="#DejaVuSans-69" transform="translate(243.115234 0)"/>
     <use xlink:href="#DejaVuSans-64" transform="translate(270.898438 0)"/>
     <use xlink:href="#DejaVuSans-61" transform="translate(334.375 0)"/>
     <use xlink:href="#DejaVuSans-74" transform="translate(395.654297 0)"/>
     <use xlink:href="#DejaVuSans-65" transform="translate(434.863281 0)"/>
     <use xlink:href="#DejaVuSans-73" transform="translate(496.386719 0)"/>
    </g>
   </g>
   <g id="line2d_38">
    <path d="M 451.042461 568.611328 
L 458.917461 568.611328 
L 466.792461 568.611328 
" style="fill: none; stroke: #000000; stroke-opacity: 0; stroke-width: 1.5; stroke-linecap: square"/>
    <defs>
     <path id="mbdf731d5b0" d="M 0 5 
C 1.326016 5 2.597899 4.473168 3.535534 3.535534 
C 4.473168 2.597899 5 1.326016 5 0 
C 5 -1.326016 4.473168 -2.597899 3.535534 -3.535534 
C 2.597899 -4.473168 1.326016 -5 0 -5 
C -1.326016 -5 -2.597899 -4.473168 -3.535534 -3.535534 
C -4.473168 -2.597899 -5 -1.326016 -5 0 
C -5 1.326016 -4.473168 2.597899 -3.535534 3.535534 
C -2.597899 4.473168 -1.326016 5 0 5 
z
" style="stroke: #ffffff"/>
    </defs>
    <g>
     <use xlink:href="#mbdf731d5b0" x="458.917461" y="568.611328" style="fill: #ff4b4b; stroke: #ffffff"/>
    </g>
   </g>
   <g id="text_14">
    <!-- best candidate -->
    <g style="fill: #657087" transform="translate(475.192461 572.286328) scale(0.105 -0.105)">
     <use xlink:href="#DejaVuSans-62"/>
     <use xlink:href="#DejaVuSans-65" transform="translate(63.476562 0)"/>
     <use xlink:href="#DejaVuSans-73" transform="translate(125 0)"/>
     <use xlink:href="#DejaVuSans-74" transform="translate(177.099609 0)"/>
     <use xlink:href="#DejaVuSans-20" transform="translate(216.308594 0)"/>
     <use xlink:href="#DejaVuSans-63" transform="translate(248.095703 0)"/>
     <use xlink:href="#DejaVuSans-61" transform="translate(303.076172 0)"/>
     <use xlink:href="#DejaVuSans-6e" transform="translate(364.355469 0)"/>
     <use xlink:href="#DejaVuSans-64" transform="translate(427.734375 0)"/>
     <use xlink:href="#DejaVuSans-69" transform="translate(491.210938 0)"/>
     <use xlink:href="#DejaVuSans-64" transform="translate(518.994141 0)"/>
     <use xlink:href="#DejaVuSans-61" transform="translate(582.470703 0)"/>
     <use xlink:href="#DejaVuSans-74" transform="translate(643.75 0)"/>
     <use xlink:href="#DejaVuSans-65" transform="translate(682.958984 0)"/>
    </g>
   </g>
   <g id="line2d_39">
    <path d="M 574.364961 568.611328 
L 582.239961 568.611328 
L 590.114961 568.611328 
" style="fill: none; stroke-dasharray: 5.6,4.2; stroke-dashoffset: 0; stroke: #ff4b4b; stroke-width: 1.4"/>
   </g>
   <g id="text_15">
    <!-- next search region -->
    <g style="fill: #657087" transform="translate(598.514961 572.286328) scale(0.105 -0.105)">
     <defs>
      <path id="DejaVuSans-78" d="M 3513 3500 
L 2247 1797 
L 3578 0 
L 2900 0 
L 1881 1375 
L 863 0 
L 184 0 
L 1544 1831 
L 300 3500 
L 978 3500 
L 1906 2253 
L 2834 3500 
L 3513 3500 
z
" transform="scale(0.015625)"/>
     </defs>
     <use xlink:href="#DejaVuSans-6e"/>
     <use xlink:href="#DejaVuSans-65" transform="translate(63.378906 0)"/>
     <use xlink:href="#DejaVuSans-78" transform="translate(123.152344 0)"/>
     <use xlink:href="#DejaVuSans-74" transform="translate(182.332031 0)"/>
     <use xlink:href="#DejaVuSans-20" transform="translate(221.541016 0)"/>
     <use xlink:href="#DejaVuSans-73" transform="translate(253.328125 0)"/>
     <use xlink:href="#DejaVuSans-65" transform="translate(305.427734 0)"/>
     <use xlink:href="#DejaVuSans-61" transform="translate(366.951172 0)"/>
     <use xlink:href="#DejaVuSans-72" transform="translate(428.230469 0)"/>
     <use xlink:href="#DejaVuSans-63" transform="translate(467.09375 0)"/>
     <use xlink:href="#DejaVuSans-68" transform="translate(522.074219 0)"/>
     <use xlink:href="#DejaVuSans-20" transform="translate(585.453125 0)"/>
     <use xlink:href="#DejaVuSans-72" transform="translate(617.240234 0)"/>
     <use xlink:href="#DejaVuSans-65" transform="translate(656.103516 0)"/>
     <use xlink:href="#DejaVuSans-67" transform="translate(717.626953 0)"/>
     <use xlink:href="#DejaVuSans-69" transform="translate(781.103516 0)"/>
     <use xlink:href="#DejaVuSans-6f" transform="translate(808.886719 0)"/>
     <use xlink:href="#DejaVuSans-6e" transform="translate(870.068359 0)"/>
    </g>
   </g>
  </g>
 </g>
 <defs>
  <clipPath id="p4163df0e39">
   <rect x="32.81375" y="75.24" width="275.612903" height="401.76"/>
  </clipPath>
  <clipPath id="p13e1ac9c8f">
   <rect x="407.647298" y="75.24" width="275.612903" height="401.76"/>
  </clipPath>
  <clipPath id="p3423f9cbb0">
   <rect x="782.480847" y="75.24" width="275.612903" height="401.76"/>
  </clipPath>
 </defs>
</svg>
